<?xml version="1.0" standalone="no"?>
<!DOCTYPE svg PUBLIC "-//W3C//DTD SVG 20010904//EN"
 "http://www.w3.org/TR/2001/REC-SVG-20010904/DTD/svg10.dtd">
<svg version="1.0" xmlns="http://www.w3.org/2000/svg"
 width="384.000000pt" height="384.000000pt" viewBox="0 0 384.000000 384.000000"
 preserveAspectRatio="xMidYMid meet">

<g transform="translate(0.000000,384.000000) scale(0.100000,-0.100000)"
fill="#000000" stroke="none">
<path d="M81 3822 c-19 -9 -44 -30 -55 -45 l-21 -28 -3 -1820 c-2 -2004 -7
-1868 60 -1909 33 -20 45 -20 1861 -20 1675 0 1831 1 1857 16 15 9 35 29 44
44 15 26 16 182 16 1857 0 1816 0 1828 -20 1861 -41 66 93 62 -1897 62 -1702
0 -1810 -1 -1842 -18z m1834 -984 l125 -63 0 -42 c0 -47 8 -51 50 -29 22 13
34 9 152 -50 l128 -64 0 -195 0 -195 -120 -60 c-66 -33 -122 -60 -125 -60 -3
0 -5 83 -5 185 l0 185 -32 20 c-18 11 -36 20 -40 20 -5 0 -8 -105 -8 -233 l0
-232 -125 -63 c-69 -34 -127 -62 -130 -62 -3 0 -5 168 -5 373 l0 372 -127 64
-128 63 125 64 c69 34 128 63 132 63 4 1 64 -27 133 -61z m-205 -681 l0 -302
-123 -63 c-67 -35 -125 -63 -129 -62 -5 0 -8 135 -8 300 l0 300 -125 62 c-69
35 -125 65 -125 68 0 4 57 33 128 67 l127 60 128 -64 127 -63 0 -303z m-742
-924 l2 -283 -100 0 -100 0 0 278 c0 153 3 282 7 286 4 4 48 5 98 4 l90 -3 3
-282z m357 155 l110 -132 3 132 3 132 89 0 90 0 2 -167 3 -168 30 60 c39 78
92 116 169 123 64 5 98 -2 121 -24 9 -9 18 -15 20 -12 2 2 12 44 22 93 l18 90
83 3 c69 2 82 0 82 -13 0 -13 -90 -467 -105 -532 -5 -21 -11 -23 -80 -23 -60
0 -75 3 -75 15 0 18 -8 18 -40 0 -14 -8 -48 -14 -76 -15 -64 0 -109 28 -144
90 l-25 45 -3 -67 -3 -68 -78 0 -78 0 -104 124 -104 124 -3 -124 -3 -124 -94
0 -95 0 0 278 c0 153 3 282 7 285 3 4 38 7 77 7 l72 0 109 -132z m1101 75 c-2
-10 -19 -90 -36 -178 -17 -88 -34 -168 -36 -177 -5 -16 5 -18 115 -18 90 0
121 -3 121 -12 -1 -7 -7 -38 -14 -68 l-12 -55 -207 -3 c-162 -2 -207 0 -207
10 0 7 23 126 50 263 28 138 50 251 50 253 0 1 41 2 91 2 81 0 90 -2 85 -17z
m630 -140 c-6 -45 -13 -54 -109 -145 l-102 -97 84 -1 84 0 -7 -50 c-11 -86 5
-80 -213 -80 l-195 0 6 48 c6 44 14 53 109 144 l102 97 -72 1 c-39 0 -74 4
-77 8 -4 7 8 78 19 110 3 9 51 12 191 12 l186 0 -6 -47z"/>
<path d="M1825 1215 c-48 -47 -25 -135 34 -135 36 0 59 17 71 54 28 85 -45
142 -105 81z"/>
</g>
</svg>
